inDegrees=yes
name=motion_pendulo.mot
DataType=double
version=3
OpenSimVersion=4.4-2022-07-23-0e9fedc
endheader
time	q1	q2
8.311982154846191	181.906840737045	29.60019264950191
8.316946983337402	181.3761945424471	30.13083884472331
8.321988105773926	181.3761945425447	29.50683270549075
8.325958967208862	180.4859117582203	30.39711549109739
8.335933923721313	180.0468980380948	30.83612921012045
8.341952085494995	180.0468980381429	30.18992432423046
8.345966100692749	179.5974118687525	30.63941049381095
8.350986957550049	179.597411868788	30.02507213607189
8.354972839355469	179.043167228208	30.5793167769678
8.360953807830811	179.0431672282486	29.90082041178095
8.369961977005005	179.0431672282523	29.18348052648906
8.373963117599487	178.6509763968618	29.57567135801871
8.37799596786499	178.6509763968937	28.79687122736627
8.389971971511841	178.2724933062001	29.17535431819801
8.397958993911743	178.2724933062304	28.37540193394276
8.402948141098022	177.9146226916123	28.73327254868805
8.407957077026367	177.9146226917312	27.40507513611654
8.414947032928467	177.5808527380318	27.73884509012248
8.418967008590698	177.5808527380779	26.79724377869899
8.423957109451294	177.2655818675409	27.11251464937191
8.427954912185669	177.2655818679488	25.1651024493024
8.437934160232544	177.2655818676084	24.11058761856144
8.447960138320923	177.2655818676015	23.09476325079626
8.452954769134521	176.9712015601289	23.38914355841398
8.474981784820557	176.9712015602335	22.18871168046874
8.482951879501343	176.9712015602159	21.06135273136321
8.488977909088135	176.6577557777819	21.37479851397834
8.496961116790771	176.6577557780346	19.81038467409948
8.502961874008179	176.2017946888243	20.26634576378337
8.506971836090088	176.2017946889463	19.13483257177786
8.512962102890015	175.1225145731489	20.21411268927468
8.51695990562439	175.1225145745916	18.01267165901851
8.520951986312866	174.2064599029206	18.92872633241891
8.526984930038452	174.2064599033375	17.85519336051193
8.530972957611084	174.0608410415432	18.0008122224055
8.535959959030151	174.0608410417352	16.94101590879436
8.539929866790771	174.1776084351341	16.82424851548535
8.543950080871582	174.1776084352932	15.78162960041194
8.548954963684082	174.4035567129502	15.5556813228297
8.553964138031006	174.4035567143858	13.2786506388049
8.558939933776855	175.7353440379284	11.94686331346929
8.564956903457642	175.7353440376165	11.0272721644498
8.568953037261963	178.6004324920945	8.162183682450589
8.572961091995239	178.6004324853948	7.29930094051215
8.579946994781494	179.3589855195334	6.540747905910154
8.583956003189087	179.358985519484	5.732138950271854
8.587952852249146	180.2138040858084	4.877320383243709
8.5919508934021	180.2138040856416	4.141299136699055
8.596958875656128	180.2138040856161	3.481183051241097
8.601956844329834	180.8788365101053	2.816150626404243
8.607955932617188	180.8788365100241	2.22036682381521
8.611952781677246	181.7851296723202	1.314073660568033
8.617964029312134	181.7851296719661	0.8009997573302756
8.62196683883667	182.836053993131	-0.2499245653867007
8.625952959060669	182.8360539925	-0.8491038580123247
8.630955934524536	183.8523445390824	-1.86539440607158
8.640949964523315	185.3810099281905	-3.394059798779168
8.645941972732544	185.3810099255067	-3.701708963941942
8.650948762893677	186.4425690515155	-4.763268091721084
8.656956911087036	186.4425690505557	-4.982542517775841
8.66395092010498	186.4425690505523	-5.130685752358462
8.670971870422363	186.8554322126507	-5.543548914566756
8.681949853897095	187.9820206227134	-6.670137326760301
8.685951948165894	187.9820206212868	-6.710404341200758
8.695972204208374	187.9820206212868	-6.671436972041503
8.719958066940308	187.9820206212861	-6.564751508789226
8.726974010467529	188.8610549226253	-7.443785811247164
8.730953931808472	188.8610549219023	-7.21315427941354
8.745940923690796	188.8610549218952	-6.923975067433811
8.750936985015869	189.552596745961	-7.615516892057859
8.756937980651855	189.5525967455789	-7.412391160571585
8.762934923171997	190.3989529483071	-8.258747364332409
8.769956111907959	190.3989529485988	-9.412161917139588
8.775935888290405	191.6583279002189	-10.67153687208187
8.781967878341675	192.8949686971132	-11.90817766878972
8.790946006774902	192.8949686950077	-11.56738680310012
8.798959970474243	192.8949686922221	-9.905345422599412
8.808966875076294	192.8949686945871	-9.006299208784835
8.817953109741211	192.8949686622753	-5.237656561519991
8.827965021133423	192.8949686940305	-4.059263469848866
8.845939874649048	192.8949686931194	-2.597252512242441
8.853955030441284	194.8222634579484	-4.524547291042555
8.859953880310059	194.8222634497752	-3.325323854243492
8.878956079483032	194.8222634420316	-0.8291860469796453
8.88695502281189	194.8222631518411	7.281167786908878
8.89995813369751	194.8222634481708	8.942590457032999
8.910951852798462	194.8222634492744	10.32063347662804
8.930964946746826	194.8222634493854	11.66300277384101
8.947988033294678	194.822263449568	12.94219091126855
8.95695686340332	194.8222634485415	14.51954466463096
8.965947866439819	194.8222633700292	19.75986627845986
8.97498083114624	194.8222634248229	23.34700458868403
8.992970943450928	194.8222634503453	24.23666597407331
9.025028944015503	194.8222634503991	25.08402988741016
9.030987977981567	194.8222634504787	25.85972261027579
9.037988901138306	194.8222634408968	28.45617731085814
9.04996395111084	197.6592744308816	25.61916620972882
9.055938005447388	199.68832222974	23.59011847786105
9.061944007873535	209.2712220805135	14.00721459248365
9.066949844360352	209.2712214787855	14.6110149492264
9.070952892303467	212.9053131943452	10.97692300511126
9.07697582244873	213.7169580978487	10.16527832754689
9.086962938308716	213.7169580975603	10.74377959702764
9.093950986862183	214.5619818005578	9.898755891019077
9.097968816757202	214.5619818002888	10.43102927754784
9.104962110519409	214.5619818002968	10.9170028273377
9.108962059020996	215.3670772673181	10.11190735765854
9.12195611000061	215.367077266951	11.08461672747703
9.128957033157349	215.3670772670186	11.91891429264942
9.133963108062744	215.3670772671325	12.15001637968633
9.14394998550415	215.3670772671342	12.29941826019858
9.156949996948242	215.3670772671338	12.47972232772213
9.160942077636719	221.7169517814155	6.129846475164316
9.166948795318604	221.7169516310666	6.114109427774205
9.170974969863892	209.8853598118585	17.94571007279924
9.176970958709717	208.0750992617166	19.75596182871701
9.181967973709106	208.0750992690619	19.69558871673709
9.185955047607422	206.2383740109715	21.53231400806322
9.195953845977783	206.2383740182376	21.42971480426986
9.199949979782104	204.5259282970235	23.14216055249293
9.204950094223022	203.2400545988549	24.42803423508853
9.208954811096191	203.2400546011246	23.98809677134545
9.218948125839233	201.0887861399128	26.139365285953
9.224957942962646	201.0887861491521	25.88954918761524
9.229952096939087	199.558548933851	27.4197864220101
9.233958005905151	199.5585489371404	26.81473498073288
9.238951921463013	191.5180312889359	34.855255349785
9.247957944869995	190.3929463866203	35.98033753878312
9.256962060928345	190.3929463969824	33.06387225357004
9.261951923370361	189.3769977962573	34.07982086693016
9.265938997268677	189.3769977976653	32.82693089543048
9.270945072174072	188.3949919329464	33.80893676485943
9.274951934814453	188.3949919337907	32.92861244155815
9.281967163085938	187.444373190393	33.87923118875663
9.288955926895142	187.444373190963	33.37798596726761
9.294983863830566	186.5251455428413	34.29721361862752
9.298974990844727	186.5251455433525	33.76263332634706
9.304970026016235	185.640731912178	34.64704696037278
9.308976888656616	185.6407319133441	33.31457459065437
9.312962055206299	184.8611968150757	34.09410969142029
9.322952032089233	184.861196815398	33.55264102558582
9.328962087631226	183.6147468081965	34.79909104037603
9.336954832077026	183.6147468093461	34.17627922931552
9.342952966690063	182.8138366832871	34.97718935742674
9.348964929580688	182.8138366843199	33.60998604857221
9.356951951980591	182.8138366840866	32.39988918963302
9.364955902099609	182.813836683761	31.52162888378081
9.369056940078735	182.0473682169243	32.2880973524919
